<?xml version="1.0" standalone="no"?>
<!DOCTYPE svg PUBLIC "-//W3C//DTD SVG 20010904//EN"
 "http://www.w3.org/TR/2001/REC-SVG-20010904/DTD/svg10.dtd">
<svg version="1.0" xmlns="http://www.w3.org/2000/svg"
 width="80pt" height="21.26pt" viewBox="0 0 606.000000 161.000000"
 preserveAspectRatio="xMidYMid meet">

<g transform="translate(0.000000,161.000000) scale(0.100000,-0.100000)"
fill="white" stroke="black">
<path d="M147 1393 c-9 -8 -9 -1186 -1 -1207 5 -12 20 -16 59 -16 61 0 65 5
65 82 l0 51 46 -46 c136 -138 367 -149 531 -25 84 64 145 178 159 297 l7 61
-67 0 -66 0 0 -35 c0 -53 -39 -144 -81 -190 -109 -119 -308 -128 -427 -20 -72
66 -96 125 -96 245 -1 78 3 104 22 145 40 88 121 155 209 173 l38 8 3 57 c3
57 3 57 -25 57 -66 0 -166 -55 -216 -117 -10 -13 -23 -23 -28 -23 -5 0 -9 105
-9 255 l0 255 -58 0 c-32 0 -62 -3 -65 -7z"/>
<path d="M1435 1388 c-3 -7 -4 -283 -3 -613 l3 -600 63 -3 62 -3 0 616 0 615
-60 0 c-39 0 -62 -4 -65 -12z"/>
<path d="M624 1376 c-3 -8 -4 -29 -2 -48 l3 -33 70 -8 c148 -16 260 -71 370
-182 113 -113 166 -221 182 -370 l8 -70 45 0 45 0 3 44 c7 95 -51 264 -128
376 -72 105 -204 210 -321 255 -115 44 -264 64 -275 36z"/>
<path d="M5424 1371 c-140 -48 -214 -161 -201 -312 3 -37 15 -84 25 -106 30
-58 139 -153 175 -153 9 0 17 -4 19 -8 2 -5 48 -30 103 -57 125 -60 178 -96
214 -146 72 -98 33 -242 -77 -291 -38 -17 -61 -20 -146 -16 -89 3 -107 7 -149
32 -26 15 -62 46 -81 67 -18 21 -40 39 -48 39 -8 0 -27 -13 -42 -29 -23 -24
-27 -35 -21 -60 9 -41 83 -106 164 -144 53 -25 80 -31 161 -35 154 -7 233 18
317 103 69 71 87 116 87 220 0 176 -59 244 -322 375 -155 77 -224 130 -243
187 -15 45 -7 103 20 147 67 108 284 103 390 -8 19 -20 43 -36 52 -36 10 0 30
16 45 35 35 46 26 67 -53 130 -102 80 -265 108 -389 66z"/>
<path d="M3613 1373 l-23 -4 0 -584 c0 -321 3 -590 6 -599 5 -14 41 -16 300
-16 l294 0 0 44 c0 81 15 76 -236 76 l-224 0 0 539 c0 482 -2 539 -16 545 -17
6 -65 6 -101 -1z"/>
<path d="M4378 1374 c-17 -5 -18 -43 -18 -605 l0 -599 64 0 c61 0 64 1 71 27
3 14 6 110 5 212 -1 102 -1 192 -1 199 1 9 27 12 94 12 96 0 100 -2 127 -55 3
-5 63 -97 133 -203 l129 -192 63 0 c35 0 67 5 70 11 4 6 -56 104 -134 220 -77
115 -142 213 -143 219 -2 6 23 21 55 34 102 42 163 105 202 208 25 66 17 242
-13 310 -33 73 -92 130 -174 169 l-73 34 -220 2 c-121 1 -228 -1 -237 -3z
m473 -147 c96 -42 136 -123 127 -257 -8 -110 -52 -170 -151 -207 -61 -22 -320
-29 -327 -9 -3 8 -4 126 -2 262 l3 247 147 -6 c128 -5 155 -9 203 -30z"/>
<path d="M628 1205 c-2 -3 -2 -24 1 -47 l6 -43 65 -13 c94 -18 166 -57 236
-126 69 -69 108 -142 127 -236 l13 -65 47 -3 47 -3 0 33 c0 57 -29 159 -63
222 -65 124 -208 235 -343 270 -60 16 -126 21 -136 11z"/>
<path d="M2908 1021 c-110 -36 -185 -95 -241 -192 -74 -128 -76 -323 -6 -461
29 -56 115 -141 175 -171 152 -76 360 -64 487 29 50 36 57 56 31 92 -19 27
-38 28 -70 3 -14 -11 -55 -30 -91 -42 -84 -28 -203 -24 -278 10 -69 30 -131
94 -155 159 -38 100 -65 92 298 92 237 0 323 4 342 13 24 12 25 17 25 102 0
80 -4 98 -32 157 -85 180 -293 270 -485 209z m235 -121 c87 -33 151 -113 164
-205 l6 -45 -287 0 -286 0 0 26 c0 42 49 132 93 170 85 73 203 94 310 54z"/>
<path d="M630 974 c0 -54 0 -55 38 -70 95 -38 143 -82 183 -168 l31 -66 59 0
c55 0 59 2 59 23 0 33 -37 124 -71 174 -58 84 -189 163 -269 163 -30 0 -30 -1
-30 -56z"/>
<path d="M1754 1006 c-3 -7 -4 -154 -2 -327 l3 -314 29 -58 c47 -93 108 -137
218 -157 100 -19 235 24 298 96 32 37 40 30 40 -37 l0 -39 59 0 c44 0 60 4 65
16 9 23 7 797 -2 810 -11 18 -50 26 -91 19 l-38 -6 -1 -270 c0 -289 -3 -317
-37 -366 -46 -68 -115 -103 -202 -103 -101 1 -172 50 -202 139 -7 22 -11 130
-11 310 0 202 -3 280 -12 289 -17 17 -107 16 -114 -2z"/>
<path d="M571 708 c-22 -60 -26 -63 -75 -66 -57 -4 -60 -22 -10 -53 28 -17 34
-26 29 -43 -14 -48 -17 -86 -8 -86 6 0 22 9 36 20 14 11 35 20 47 20 12 0 33
-9 47 -20 14 -11 30 -20 36 -20 9 0 4 59 -8 92 -3 7 12 25 35 41 47 33 44 47
-8 47 -48 0 -61 9 -77 56 -17 49 -29 53 -44 12z"/>
</g>
</svg>
